<svg id="flat" height="512" viewBox="0 0 512 512" width="512" xmlns="http://www.w3.org/2000/svg"><path d="m352 344-92.28427-92.28427a40 40 0 0 0 -28.28427-11.71573h-128.67141a78.76006 78.76006 0 0 0 -78.76005 78.76005v169.23995h216v-168l112 117.80861z" fill="#548aff"/><path d="m160 296-16-24 24-16 24 16-16 24z" fill="#ffb401"/><path d="m144 392 16-96h16l16 96z" fill="#ffc431"/><path d="m216.001 304a7.99629 7.99629 0 0 1 -5.12207-1.85449l-42.87893-35.73145-42.87891 35.73145a7.99925 7.99925 0 0 1 -13.12109-6.14551v-56h16v38.91992l34.87891-29.06543a7.99808 7.99808 0 0 1 10.24218 0l34.87891 29.06543v-38.91992h16v56a7.99849 7.99849 0 0 1 -7.999 8z" fill="#4976f2"/><path d="m344 344h144v144h-144z" fill="#e0edff"/><circle cx="416" cy="416" fill="#c5dafa" r="16"/><path d="m240 456a8 8 0 0 1 -8 8h-99.18164a64.12709 64.12709 0 0 1 -52.07813-26.7998l-35.74286-50.0402a8.00015 8.00015 0 0 1 1.85963-11.1597 8.00016 8.00016 0 0 1 11.16041 1.85979l35.74234 50.04031a48.09438 48.09438 0 0 0 39.05861 20.0996h99.18164a8 8 0 0 1 8 8z" fill="#4976f2"/><path d="m240 392 43.03-14.34332a32.28318 32.28318 0 0 1 10.20887-1.65668 32.28335 32.28335 0 0 1 19.37 6.45667l16.37326 12.28a10.51108 10.51108 0 0 1 3.09476 13.10957 10.5111 10.5111 0 0 1 -12.72531 5.271l-15.35158-5.11724-64 48z" fill="#ffceb6"/><path d="m232 400h-88.00022a7.99955 7.99955 0 0 1 -6.55349-3.41211l-51.41245-73.44636a8 8 0 0 1 1.966-11.14138 8 8 0 0 1 11.14173 1.966l49.02343 70.03385h83.835a8 8 0 0 1 8 8 8 8 0 0 1 -8 8z" fill="#4976f2"/><path d="m488 16v192l-56 56v80h-64v-80l-56-56v-192z" fill="#08d175"/><g fill="#67eba0"><path d="m392 200h16v120h-16z"/><path d="m392 160h16v16h-16z"/><path d="m392 88h16v56h-16z"/><path d="m392 16h16v56h-16z"/><path d="m352 176h16v40h-16z"/><path d="m352 16h16v144h-16z"/><path d="m432 144h16v72h-16z"/><path d="m432 112h16v16h-16z"/><path d="m432 16h16v80h-16z"/></g><path d="m208 168v48a40 40 0 0 1 -40 40 40 40 0 0 1 -40-40v-24l24-24z" fill="#ffceb6"/><circle cx="160" cy="200" fill="#c47220" r="8"/><circle cx="184" cy="200" fill="#c47220" r="8"/><path d="m208 168 5.0675-2.53376a19.777 19.777 0 0 0 10.9325-17.68909 19.77706 19.77706 0 0 0 -19.77707-19.77715h-36.22293a40 40 0 0 0 -40 40v24l24-24z" fill="#c47220"/><path d="m208 456h136a0 0 0 0 1 0 0v32a0 0 0 0 1 0 0h-120a16 16 0 0 1 -16-16v-16a0 0 0 0 1 0 0z" fill="#d1e4ff"/></svg>