<svg id="flat" height="512" viewBox="0 0 512 512" width="512" xmlns="http://www.w3.org/2000/svg"><path d="m480 72v400a16 16 0 0 1 -16 16h-248a16 16 0 0 1 -16-16v-400z" fill="#548aff"/><path d="m200 248v-112a16 16 0 0 1 16-16h200a16 16 0 0 1 16 16v96a16 16 0 0 1 -16 16z" fill="#91c0ff"/><path d="m200 72v-32a16 16 0 0 1 16-16h248a16 16 0 0 1 16 16v32z" fill="#7dafff"/><path d="m80 128h24v32h-24z" fill="#ffbfa1"/><path d="m264 242.79a5.18981 5.18981 0 0 1 -5.21 5.21h-88.12008a32.01753 32.01753 0 0 1 -19.19992-6.3999l-23.47-17.6001v32h-96v-72a32.00409 32.00409 0 0 1 32-32h48l48-48v-18.34009a5.65686 5.65686 0 0 1 9.65991-4l6.34009 6.34009 16-16 13.16992 13.16992a15.99894 15.99894 0 0 1 .48 22.12012l-24.07983 26.28-42.09009 45.90996 28.52 28.52h56l10.93994-5.47a7.84743 7.84743 0 0 1 10.53 10.53l-5.46994 10.94 21.68018 14.45a5.22561 5.22561 0 0 1 2.31982 4.34z" fill="#ffceb6"/><path d="m208 208v40h-37.33008a32.01753 32.01753 0 0 1 -19.19992-6.3999l-23.47-17.6001v32h-96v-72a32.00409 32.00409 0 0 1 32-32h48l44-44 25.57007 25.57007-42.09007 45.90993 28.52 28.52z" fill="#ffb401"/><path d="m112 120h-24l-8 8v8a16 16 0 0 0 16 16 16 16 0 0 0 16-16z" fill="#ffceb6"/><path d="m112 120 4.68629-4.68629a11.31372 11.31372 0 0 0 3.31371-8 11.31369 11.31369 0 0 0 -11.3137-11.31371h-12.6863a16 16 0 0 0 -16 16v16l8-8z" fill="#c47220"/><path d="m113.92285 200h-41.92285a8 8 0 0 1 -8-8 8 8 0 0 1 8-8h41.92462a23.99612 23.99612 0 0 0 17.68965-7.78223l1.20348-1.313a8 8 0 0 1 11.30342-.4916l.00031.00028a8 8 0 0 1 .49121 11.303l-1.20341 1.31276a40.001 40.001 0 0 1 -29.48643 12.97079z" fill="#ffa100"/><path d="m64 456 32 24v8h-64v-24z" fill="#e0edff"/><path d="m128 456 32 24v8h-64v-24z" fill="#c5dafa"/><path d="m32 464v-208h96v200l-32 8-16-168-16 160z" fill="#62798c"/><path d="m240 168h32v16h-32z" fill="#7dafff"/><path d="m288 168h112v16h-112z" fill="#7dafff"/><path d="m272 200h72v16h-72z" fill="#7dafff"/><path d="m360 200h40v16h-40z" fill="#7dafff"/><g fill="#4976f2"><path d="m272 272h72v16h-72z"/><path d="m360 272h80v16h-80z"/><path d="m312 304h72v16h-72z"/><path d="m400 304h16v16h-16z"/><path d="m240 336h88v16h-88z"/><path d="m344 336h40v16h-40z"/><path d="m240 368h48v16h-48z"/><path d="m304 368h16v16h-16z"/><path d="m296 400h72v16h-72z"/><path d="m384 400h16v16h-16z"/><path d="m296 432h56v16h-56z"/><path d="m368 432h72v16h-72z"/></g><circle cx="224" cy="48" fill="#fa8669" r="8"/><circle cx="248" cy="48" fill="#ffcc4d" r="8"/><circle cx="272" cy="48" fill="#08d175" r="8"/><circle cx="224" cy="144" fill="#f5714f" r="8"/><circle cx="248" cy="144" fill="#ffc431" r="8"/><circle cx="272" cy="144" fill="#02c26a" r="8"/></svg>